<svg xmlns="http://www.w3.org/2000/svg" viewBox="0 0 512 512"><title>PC</title><g id="PC"><g id="PC-2" data-name="PC"><path d="M263.5371,143.1569H87.91a35.4793,35.4793,0,0,0-35.4331,35.4475V296.032A35.4752,35.4752,0,0,0,87.91,331.4747h47.6464V371.578h80.3484V331.4833h47.6367a35.4843,35.4843,0,0,0,35.4427-35.4465V178.6044A35.4861,35.4861,0,0,0,263.5371,143.1569ZM72.5831,178.6044A15.3531,15.3531,0,0,1,87.91,163.2675H263.5323a15.3552,15.3552,0,0,1,15.337,15.3369v93.2769H72.5831V178.6044ZM278.8788,296.0368a15.3645,15.3645,0,0,1-15.3417,15.3359H195.79V351.477H155.6625V311.3727H87.91a15.3554,15.3554,0,0,1-15.3273-15.3359v-4.0449H278.8788Z"/><path d="M431.9263,140.422H345.48A26.5876,26.5876,0,0,0,318.9218,166.98V337.7115A26.5885,26.5885,0,0,0,345.48,364.2706h86.4464a26.59,26.59,0,0,0,26.5629-26.5591V166.9753A26.5815,26.5815,0,0,0,431.9263,140.422Zm6.4523,197.29a6.4532,6.4532,0,0,1-6.4523,6.4523H345.48a6.4563,6.4563,0,0,1-6.4523-6.4523V166.9753a6.4522,6.4522,0,0,1,6.4523-6.4475h86.4464a6.4491,6.4491,0,0,1,6.4523,6.4475Z"/><rect x="395.9885" y="312.0976" width="21.8917" height="20.1106"/><rect x="359.526" y="312.0976" width="21.8927" height="20.1106"/></g></g></svg>